<svg width="400" height="400" viewBox="0 0 400 400" xmlns="http://www.w3.org/2000/svg">
  <circle cx="200" cy="180" r="95" fill="#F4F4F4" />

  <g transform="translate(145, 120)">
    <path d="M40 90 C10 90 0 70 0 50 C0 30 15 10 40 10 C65 10 80 30 80 50 C80 70 70 90 40 90Z" fill="#4CAF50" />
    
    <circle cx="75" cy="65" r="35" fill="#E53935" />
    
    <path d="M60 40 Q75 60 90 85" stroke="white" stroke-width="4" fill="none" stroke-linecap="round" />
    
    <path d="M40 10 L45 -10" stroke="#5D4037" stroke-width="5" stroke-linecap="round" />
    <path d="M45 -5 Q70 -15 65 5 Z" fill="#2E7D32" />
  </g>

  <g font-family="Segoe UI, Tahoma, Helvetica, Arial, sans-serif" text-anchor="middle">
    <text x="200" y="320" font-size="34" font-weight="900" fill="#1B5E20" letter-spacing="2">
      ABU
    </text>
    <text x="200" y="355" font-size="20" font-weight="600" fill="#424242" letter-spacing="4">
      SAVDO MARKAZI
    </text>
  </g>

  <rect x="140" y="328" width="120" height="3" rx="1.5" fill="#E53935" />
</svg>
